<?xml version="1.0" encoding="UTF-8" standalone="no"?>
<svg
   xmlns:dc="http://purl.org/dc/elements/1.1/"
   xmlns:cc="http://creativecommons.org/ns#"
   xmlns:rdf="http://www.w3.org/1999/02/22-rdf-syntax-ns#"
   xmlns:svg="http://www.w3.org/2000/svg"
   xmlns="http://www.w3.org/2000/svg"
   xmlns:sodipodi="http://sodipodi.sourceforge.net/DTD/sodipodi-0.dtd"
   xmlns:inkscape="http://www.inkscape.org/namespaces/inkscape"
   height="100px"
   width="100px"
   fill="#000000"
   version="1.1"
   x="0px"
   y="0px"
   viewBox="0 0 100 100"
   enable-background="new 0 0 100 100"
   xml:space="preserve"
   id="svg38"
   sodipodi:docname="neverall.svg"
   inkscape:version="1.0.2 (e86c8708, 2021-01-15)"><metadata
     id="metadata44"><rdf:RDF><cc:Work
         rdf:about=""><dc:format>image/svg+xml</dc:format><dc:type
           rdf:resource="http://purl.org/dc/dcmitype/StillImage" /><dc:title></dc:title></cc:Work></rdf:RDF></metadata><defs
     id="defs42" /><sodipodi:namedview
     pagecolor="#ffffff"
     bordercolor="#666666"
     borderopacity="1"
     objecttolerance="10"
     gridtolerance="10"
     guidetolerance="10"
     inkscape:pageopacity="0"
     inkscape:pageshadow="2"
     inkscape:window-width="1009"
     inkscape:window-height="748"
     id="namedview40"
     showgrid="false"
     inkscape:zoom="3.3199301"
     inkscape:cx="10.871309"
     inkscape:cy="32.852229"
     inkscape:window-x="347"
     inkscape:window-y="1339"
     inkscape:window-maximized="0"
     inkscape:current-layer="svg38" /><g
     id="g14"
     transform="translate(0.30121116,-6.3254344)"><polygon
       fill="#000000"
       points="37.757,41.075 40.961,53.172 37.481,54.094 34.277,41.997 32.217,42.542 35.011,37.736 39.818,40.53 "
       id="polygon10" /><path
       fill="#000000"
       d="m 37.481,54.432 c -0.15,0 -0.287,-0.101 -0.327,-0.252 l -3.118,-11.769 -1.733,0.458 c -0.132,0.036 -0.272,-0.012 -0.355,-0.122 -0.083,-0.108 -0.092,-0.256 -0.023,-0.375 l 2.794,-4.808 c 0.094,-0.161 0.301,-0.216 0.462,-0.122 l 4.807,2.793 c 0.118,0.069 0.184,0.202 0.165,0.338 -0.018,0.136 -0.116,0.246 -0.248,0.282 l -1.734,0.459 3.118,11.769 c 0.023,0.087 0.01,0.179 -0.035,0.256 -0.045,0.078 -0.119,0.135 -0.206,0.157 l -3.48,0.922 c -0.03,0.01 -0.059,0.014 -0.087,0.014 z M 34.277,41.659 c 0.149,0 0.287,0.1 0.327,0.251 l 3.117,11.77 2.827,-0.749 -3.118,-11.769 c -0.048,-0.181 0.06,-0.366 0.24,-0.414 l 1.271,-0.337 -3.809,-2.214 -2.214,3.81 1.271,-0.337 c 0.031,-0.007 0.06,-0.011 0.088,-0.011 z"
       id="path12" /></g><g
     id="g20"
     transform="translate(0.30121116,-6.3254344)"><polygon
       fill="#000000"
       points="52.469,36.479 52.469,53.68 47.519,53.68 47.519,36.479 44.589,36.479 49.993,31.075 55.398,36.479 "
       id="polygon16" /><path
       fill="#000000"
       d="m 52.469,54.019 h -4.95 c -0.188,0 -0.338,-0.151 -0.338,-0.339 V 36.817 h -2.592 c -0.137,0 -0.26,-0.081 -0.312,-0.208 -0.053,-0.126 -0.023,-0.271 0.073,-0.368 l 5.404,-5.404 c 0.127,-0.127 0.351,-0.127 0.478,0 l 5.385,5.383 c 0.073,0.062 0.12,0.156 0.12,0.26 0,0.188 -0.15,0.338 -0.338,0.338 0,0.001 -10e-4,0.001 -10e-4,0 H 52.806 V 53.68 c 0.001,0.187 -0.152,0.339 -0.337,0.339 z M 47.857,53.342 H 52.13 V 36.479 c 0,-0.186 0.151,-0.337 0.339,-0.337 h 2.113 l -4.589,-4.588 -4.587,4.588 h 2.113 c 0.186,0 0.338,0.151 0.338,0.337 v 16.863 z"
       id="path18" /></g><path
     fill="#000000"
     d="m 82.233211,54.181566 c -0.152,0 -0.308,-0.035 -0.451,-0.112 -7.001,-3.71 -18.771,-5.924 -31.486,-5.924 -12.717,0 -24.488,2.214 -31.487,5.924 -0.472,0.25 -1.056,0.07 -1.306,-0.401 -0.25,-0.472 -0.07,-1.056 0.401,-1.306 7.265,-3.851 19.374,-6.149 32.392,-6.149 13.016,0 25.124,2.299 32.391,6.149 0.472,0.25 0.65,0.834 0.401,1.306 -0.174,0.327 -0.51,0.513 -0.855,0.513 z"
     id="path22" /><g
     id="g30"
     transform="translate(0.30121116,-6.3254344)"><path
       fill="#000000"
       d="m 80.657,64.657 c -0.152,0 -0.308,-0.036 -0.451,-0.113 -0.651,-0.345 -1.361,-0.682 -2.108,-1.002 -0.491,-0.211 -0.719,-0.778 -0.508,-1.269 0.21,-0.491 0.777,-0.717 1.268,-0.508 0.797,0.342 1.555,0.701 2.253,1.071 0.472,0.25 0.65,0.834 0.401,1.306 -0.173,0.329 -0.509,0.515 -0.855,0.515 z"
       id="path24" /><path
       fill="#000000"
       d="m 25.706,62.102 c -0.414,0 -0.796,-0.268 -0.923,-0.684 -0.156,-0.511 0.131,-1.05 0.641,-1.206 1.375,-0.422 2.853,-0.81 4.393,-1.154 0.52,-0.117 1.037,0.211 1.153,0.731 0.117,0.521 -0.21,1.037 -0.731,1.154 -1.491,0.333 -2.921,0.709 -4.249,1.116 -0.095,0.028 -0.19,0.043 -0.284,0.043 z m 48.572,-10e-4 c -0.094,0 -0.188,-0.014 -0.283,-0.043 -1.328,-0.405 -2.757,-0.781 -4.249,-1.115 -0.521,-0.116 -0.848,-0.633 -0.731,-1.153 0.117,-0.521 0.635,-0.849 1.154,-0.731 1.539,0.345 3.017,0.732 4.392,1.153 0.511,0.155 0.797,0.696 0.642,1.206 -0.129,0.415 -0.511,0.683 -0.925,0.683 z M 34.414,60.126 c -0.465,0 -0.876,-0.338 -0.953,-0.812 -0.085,-0.527 0.273,-1.022 0.8,-1.108 1.447,-0.233 2.953,-0.437 4.477,-0.603 0.531,-0.059 1.007,0.324 1.065,0.855 0.058,0.529 -0.324,1.007 -0.855,1.064 -1.491,0.163 -2.964,0.361 -4.379,0.59 -0.052,0.01 -0.104,0.014 -0.155,0.014 z m 31.156,0 c -0.051,0 -0.103,-0.005 -0.154,-0.013 -1.415,-0.229 -2.889,-0.427 -4.379,-0.59 -0.531,-0.058 -0.913,-0.535 -0.855,-1.064 0.059,-0.531 0.536,-0.914 1.065,-0.855 1.522,0.166 3.029,0.369 4.477,0.603 0.527,0.086 0.885,0.581 0.8,1.108 -0.077,0.473 -0.488,0.811 -0.954,0.811 z m -8.88,-0.98 c -0.02,0 -0.041,-10e-4 -0.061,-0.002 -1.454,-0.092 -2.941,-0.154 -4.421,-0.185 -0.534,-0.012 -0.958,-0.452 -0.947,-0.986 0.012,-0.533 0.454,-0.953 0.986,-0.945 1.507,0.031 3.022,0.095 4.503,0.188 0.533,0.033 0.938,0.493 0.903,1.024 -0.031,0.513 -0.456,0.906 -0.963,0.906 z m -13.396,0 c -0.506,0 -0.931,-0.394 -0.963,-0.905 -0.034,-0.531 0.371,-0.991 0.903,-1.024 1.482,-0.094 2.998,-0.157 4.505,-0.188 0.533,-0.009 0.974,0.412 0.985,0.945 0.011,0.533 -0.413,0.975 -0.945,0.986 -1.479,0.03 -2.968,0.093 -4.423,0.185 -0.021,10e-4 -0.042,10e-4 -0.062,10e-4 z"
       id="path26" /><path
       fill="#000000"
       d="m 19.33,64.657 c -0.346,0 -0.681,-0.187 -0.854,-0.515 -0.25,-0.472 -0.07,-1.056 0.401,-1.306 0.697,-0.37 1.456,-0.729 2.252,-1.071 0.49,-0.211 1.058,0.017 1.269,0.508 0.209,0.49 -0.018,1.058 -0.508,1.269 -0.749,0.32 -1.458,0.657 -2.108,1.002 -0.145,0.076 -0.3,0.113 -0.452,0.113 z"
       id="path28" /></g><g
     id="g36"
     transform="translate(0.30121116,-6.3254344)"><polygon
       fill="#000000"
       points="62.229,41.075 59.025,53.172 62.507,54.094 65.71,41.997 67.771,42.542 64.977,37.736 60.17,40.53 "
       id="polygon32" /><path
       fill="#000000"
       d="m 62.507,54.432 c -0.029,0 -0.059,-0.004 -0.087,-0.012 L 58.939,53.498 C 58.759,53.45 58.652,53.266 58.7,53.085 l 3.117,-11.77 -1.733,-0.458 C 59.951,40.821 59.853,40.711 59.835,40.575 59.817,40.439 59.882,40.306 60,40.237 l 4.808,-2.794 c 0.077,-0.044 0.17,-0.057 0.257,-0.033 0.086,0.022 0.16,0.079 0.205,0.156 l 2.777,4.779 c 0.041,0.056 0.064,0.125 0.064,0.198 0,0.186 -0.15,0.338 -0.337,0.338 -0.03,0 -0.06,-0.003 -0.09,-0.011 L 65.952,42.412 62.833,54.18 c -0.023,0.087 -0.079,0.16 -0.157,0.206 -0.052,0.03 -0.111,0.046 -0.169,0.046 z m -3.068,-1.501 2.826,0.749 3.117,-11.77 c 0.048,-0.181 0.232,-0.288 0.414,-0.24 l 1.271,0.337 -2.215,-3.81 -3.809,2.214 1.271,0.337 c 0.181,0.048 0.288,0.233 0.241,0.414 z"
       id="path34" /></g><text
     xml:space="preserve"
     style="font-size:16px;line-height:1.25;font-family:sans-serif;word-spacing:0px"
     x="50.980206"
     y="72.911377"
     id="text48"><tspan
       sodipodi:role="line"
       id="tspan46"
       x="50.980206"
       y="72.911377"
       style="font-style:normal;font-variant:normal;font-weight:normal;font-stretch:normal;font-size:16px;font-family:'Bangla MN';-inkscape-font-specification:'Bangla MN';text-align:center;text-anchor:middle">NeverAll</tspan></text></svg>
